SplineFontDB: 3.2
FontName: Connecto
FullName: Connecto
FamilyName: Connecto
Weight: Regular
Copyright: Copyright (c) 2022, RandomMaerks (Bao Nguyen)
UComments: "2021-10-16: Created with FontForge (http://fontforge.org)"
Version: 001.000
ItalicAngle: 0
UnderlinePosition: -100
UnderlineWidth: 50
Ascent: 800
Descent: 200
InvalidEm: 0
LayerCount: 2
Layer: 0 0 "Back" 1
Layer: 1 0 "Fore" 0
XUID: [1021 301 932173752 15719]
StyleMap: 0x0000
FSType: 0
OS2Version: 0
OS2_WeightWidthSlopeOnly: 0
OS2_UseTypoMetrics: 1
CreationTime: 1634391449
ModificationTime: 1654416132
OS2TypoAscent: 0
OS2TypoAOffset: 1
OS2TypoDescent: 0
OS2TypoDOffset: 1
OS2TypoLinegap: 90
OS2WinAscent: 0
OS2WinAOffset: 1
OS2WinDescent: 0
OS2WinDOffset: 1
HheadAscent: 0
HheadAOffset: 1
HheadDescent: 0
HheadDOffset: 1
OS2Vendor: 'Rand'
MarkAttachClasses: 1
DEI: 91125
Encoding: ISO8859-1
UnicodeInterp: none
NameList: AGL For New Fonts
DisplaySize: -48
AntiAlias: 1
FitToEm: 0
WinInfo: 57 19 6
BeginPrivate: 0
EndPrivate
Grid
-1000 682 m 0
 2000 682 l 1024
  Named: "cap-height & ascender line"
-1000 489 m 0
 2000 489 l 1024
  Named: "x-height"
EndSplineSet
BeginChars: 256 53

StartChar: n
Encoding: 110 110 0
Width: 520
Flags: HW
LayerCount: 2
Fore
SplineSet
140 365 m 1
 160 430 219 500 305 500 c 0
 396 500 470 431 470 306 c 2
 470 1 l 1
 379 1 l 1
 379 268 l 2
 379 372 340 418 272 418 c 0
 195 418 140 341 140 283 c 2
 140 1 l 1
 50 1 l 1
 50 489 l 1
 120 489 l 5
 140 365 l 1
EndSplineSet
Validated: 1
EndChar

StartChar: d
Encoding: 100 100 1
Width: 540
Flags: HW
LayerCount: 2
Fore
SplineSet
400 118 m 1
 420 1 l 1
 490 1 l 1
 490 681 l 1
 400 681 l 1
 400 375 l 1
 379.841463415 439 320.426829268 500 226 500 c 0
 123.277108434 500 30 387 30 239 c 0
 30 91 118.554216867 -7 226 -7 c 0
 317.243902439 -7 379.841463415 54 400 118 c 1
400 241 m 0
 400 128 340.833333333 75 258 75 c 0
 170.934579439 75 121 136 121 234 c 0
 121 325 151.728971963 418 258 418 c 0
 362.348484848 418 400 341 400 241 c 0
EndSplineSet
Validated: 9
EndChar

StartChar: h
Encoding: 104 104 2
Width: 520
Flags: HW
LayerCount: 2
Fore
SplineSet
50 681 m 1
 140 681 l 5
 140 375 l 1
 159 439 218 500 304 500 c 0
 395 500 470 431 470 306 c 2
 470 1 l 1
 379 1 l 1
 379 268 l 2
 379 372 340 418 272 418 c 0
 195 418 140 351 140 293 c 2
 140 1 l 1
 50 1 l 1
 50 681 l 1
EndSplineSet
Validated: 1
EndChar

StartChar: m
Encoding: 109 109 3
Width: 699
Flags: HW
LayerCount: 2
Fore
SplineSet
273 500 m 0
 330 500 369 437 383 376 c 1
 395 439 455 499 521 499 c 0
 602 499 649 409 649 305 c 2
 649 0 l 1
 558 0 l 1
 558 267 l 2
 558 350 547 417 489 417 c 0
 425 417 402 364 402 306 c 2
 402 1 l 1
 311 1 l 1
 311 268 l 2
 311 351 300 418 242 418 c 0
 178 418 140 351 140 293 c 2
 140 1 l 1
 50 1 l 1
 50 489 l 1
 120 489 l 5
 140 375 l 1
 159 439 200 500 273 500 c 0
EndSplineSet
Validated: 1
EndChar

StartChar: u
Encoding: 117 117 4
Width: 520
Flags: HW
LayerCount: 2
Fore
SplineSet
470 1 m 5
 400 1 l 5
 380 115 l 5
 361 51 302 -10 216 -10 c 0
 125 -10 50 59 50 184 c 6
 50 489 l 5
 141 489 l 5
 141 222 l 6
 141 118 180 72 248 72 c 4
 325 72 380 139 380 197 c 6
 380 489 l 5
 470 489 l 5
 470 1 l 5
EndSplineSet
Validated: 1
EndChar

StartChar: i
Encoding: 105 105 5
Width: 190
Flags: HW
LayerCount: 2
Fore
SplineSet
140 588 m 1
 50 588 l 1
 50 681 l 1
 140 681 l 1
 140 588 l 1
140 1 m 5
 50 1 l 5
 50 489 l 5
 140 489 l 5
 140 1 l 5
EndSplineSet
Validated: 1
EndChar

StartChar: j
Encoding: 106 106 6
Width: 190
Flags: HW
LayerCount: 2
Fore
SplineSet
140 588 m 1
 50 588 l 1
 50 681 l 1
 140 681 l 1
 140 588 l 1
50 489 m 5
 140 489 l 5
 140 -52 l 6
 140 -124.288288288 93.7180616741 -170 38 -170 c 4
 -18.8755760367 -170 -64 -128.835616438 -64 -35 c 5
 10 -14 l 5
 10 -71.7401129943 19.2413793104 -87 30 -87 c 4
 42.7407407407 -87 50 -73 50 -52 c 6
 50 489 l 5
EndSplineSet
Validated: 1
EndChar

StartChar: k
Encoding: 107 107 7
Width: 478
Flags: HW
LayerCount: 2
Fore
SplineSet
478 0 m 1
 352 0 l 1
 140 212.834645669 l 1
 140 1 l 1
 50 1 l 1
 50 681 l 1
 140 681 l 1
 140 297 l 1
 332 489 l 1
 459 489 l 1
 225 255 l 1
 478 0 l 1
EndSplineSet
Validated: 1
EndChar

StartChar: l
Encoding: 108 108 8
Width: 190
Flags: HW
LayerCount: 2
Fore
SplineSet
140 1 m 5
 50 1 l 5
 50 681 l 5
 140 681 l 5
 140 1 l 5
EndSplineSet
Validated: 1
EndChar

StartChar: o
Encoding: 111 111 9
Width: 534
Flags: HW
LayerCount: 2
Fore
SplineSet
117 244 m 4
 117 120 190 68 264 68 c 4
 342 68 410 120 410 244 c 4
 410 360 342 416 264 416 c 4
 190 416 117 360 117 244 c 4
30 244 m 4
 30 386 136 502 267 502 c 4
 398 502 504 386 504 244 c 4
 504 102 398 -14 267 -14 c 4
 136 -14 30 102 30 244 c 4
EndSplineSet
Validated: 1
EndChar

StartChar: b
Encoding: 98 98 10
Width: 500
Flags: HW
LayerCount: 2
Fore
SplineSet
140 118 m 1
 120 1 l 5
 50 1 l 1
 50 681 l 1
 140 681 l 1
 140 375 l 1
 159 439 215 500 304 500 c 0
 391 500 470 407 470 239 c 0
 470 71 395 -7 304 -7 c 0
 218 -7 159 54 140 118 c 1
140 241 m 0
 140 128 195 75 272 75 c 0
 340 75 379 116 379 234 c 0
 379 345 355 418 272 418 c 0
 175 418 140 341 140 241 c 0
EndSplineSet
Validated: 1
EndChar

StartChar: p
Encoding: 112 112 11
Width: 500
Flags: HW
LayerCount: 2
Fore
SplineSet
140 372 m 1
 120 489 l 5
 50 489 l 1
 50 -191 l 1
 140 -191 l 1
 140 115 l 1
 159 51 215 -10 304 -10 c 0
 391 -10 470 83 470 251 c 0
 470 419 395 497 304 497 c 0
 218 497 159 436 140 372 c 1
140 249 m 0
 140 362 195 415 272 415 c 0
 340 415 379 374 379 256 c 0
 379 145 355 72 272 72 c 0
 175 72 140 149 140 249 c 0
EndSplineSet
Validated: 9
EndChar

StartChar: q
Encoding: 113 113 12
Width: 500
Flags: HW
LayerCount: 2
Fore
SplineSet
360 372 m 1
 380 489 l 5
 450 489 l 1
 450 -191 l 1
 360 -191 l 1
 360 115 l 1
 341 51 285 -10 196 -10 c 0
 109 -10 30 83 30 251 c 0
 30 419 105 497 196 497 c 0
 282 497 341 436 360 372 c 1
360 249 m 0
 360 362 305 415 228 415 c 0
 160 415 121 374 121 256 c 0
 121 145 145 72 228 72 c 0
 325 72 360 149 360 249 c 0
EndSplineSet
Validated: 1
EndChar

StartChar: r
Encoding: 114 114 13
Width: 394
Flags: HW
LayerCount: 2
Fore
SplineSet
325 355 m 1
 322 381 291 420 246 420 c 0
 183 420 140 349 140 293 c 2
 140 1 l 1
 50 1 l 1
 50 489 l 1
 120 489 l 1
 140 375 l 1
 159.485140542 440.634157616 212.705085333 501.665276617 280.078893617 501.665276617 c 0
 334.294883966 501.665276617 381.752904576 446.927982321 389 394 c 1
 325 355 l 1
EndSplineSet
Validated: 1
EndChar

StartChar: e
Encoding: 101 101 14
Width: 534
Flags: HW
LayerCount: 2
Fore
SplineSet
487 208 m 1
 119 208 l 1
 119 119 195 68 282 68 c 0
 376.514925373 68 431 119.703448276 431 221 c 1
 507 182 l 1
 507 64 423 -14 285 -14 c 0
 127 -14 30 82 30 244 c 0
 30 386 136 502 267 502 c 0
 394.412431612 502 494 406 494 252 c 0
 494 237 491 221 487 208 c 1
408 281 m 1
 395 372 334 416 264 416 c 0
 198 416 134 372 120 281 c 1
 408 281 l 1
EndSplineSet
Validated: 5
EndChar

StartChar: g
Encoding: 103 103 15
Width: 500
Flags: HW
LayerCount: 2
Fore
SplineSet
360 268 m 4
 360 381 308 415 231 415 c 0
 164 415 121 340 121 256 c 0
 121 175 159 100 231 100 c 0
 328 100 360 168 360 268 c 4
245 -87 m 4
 318.259259259 -87 360 -40.6690647482 360 28 c 6
 360 123 l 5
 341 59 304 18 208 18 c 0
 122 18 30 90 30 258 c 0
 30 422 108 497 208 497 c 0
 294 497 341 436 360 372 c 5
 380 489 l 5
 450 489 l 5
 450 28 l 6
 450 -93.2972972973 356.074889868 -170 243 -170 c 4
 133.152073733 -170 46 -88.5159817352 46 45 c 5
 120 66 l 5
 120 -55.0169491525 177.75862069 -87 245 -87 c 4
EndSplineSet
Validated: 5
EndChar

StartChar: c
Encoding: 99 99 16
Width: 534
Flags: HW
LayerCount: 2
Fore
SplineSet
470.87890625 255.116210938 m 5
 386.358398438 224.688476562 l 5
 386.358398438 353 330.761203637 416 249 416 c 4
 182.655172414 416 119 360 119 244 c 4
 119 118 185.674846626 68 262 68 c 4
 350.179265791 68 413 134 413 243 c 5
 494 212 l 5
 494 76 386.623655914 -14 265 -14 c 4
 119.392156863 -14 30 82 30 244 c 4
 30 386 129.291139241 502 252 502 c 4
 373.435991308 502 470.87890625 389 470.87890625 255.116210938 c 5
EndSplineSet
Validated: 5
EndChar

StartChar: a
Encoding: 97 97 17
Width: 500
Flags: HW
LayerCount: 2
Fore
SplineSet
360 241 m 0
 360 148.862068966 300.352941176 74 204.028048374 74 c 0
 148.363636364 74 121 99 121 132.247841157 c 0
 121 155 133.814218662 177.391740217 171 189 c 2
 360 248 l 1
 360 241 l 0
133 239 m 1
 133 386.577669634 193.108142557 430.2734375 250.284252441 430.2734375 c 0
 311 430.2734375 360 381 360 324 c 1
 148 261 l 2
 80.5030973361 240.941958171 30 199.085426508 30 125.069191902 c 0
 30 46.754491018 86.5393258427 -8 181.428026124 -8 c 0
 280.973684211 -8 349.223684211 52.2608695652 360 97 c 1
 390 24.476635514 428 0 480 0 c 1
 490 79 l 1
 463 79 450 117 450 158 c 1
 450 301 l 2
 450 440.355171871 355.284564376 513.525390625 259.255349095 513.525390625 c 0
 145.392247445 513.525390625 56 410.654236262 56 260 c 1
 133 239 l 1
EndSplineSet
Validated: 5
EndChar

StartChar: t
Encoding: 116 116 18
Width: 427
Flags: HW
LayerCount: 2
Fore
SplineSet
190 403 m 5
 190 168 l 2
 190 117 214.5 83 261.669921875 83 c 0
 293 83 320 98 320 156 c 1
 394 145 l 1
 394 44.037109375 331.352539062 0 258.000976562 0 c 0
 168.548828125 0 100 45.4912109375 100 168 c 2
 100 403 l 5
 20 403 l 5
 20 489 l 5
 100 489 l 5
 100 619 l 1
 190 639 l 1
 190 489 l 5
 397 489 l 5
 397 403 l 5
 190 403 l 5
EndSplineSet
Validated: 1
EndChar

StartChar: f
Encoding: 102 102 19
Width: 427
Flags: HW
LayerCount: 2
Fore
SplineSet
190 489 m 1
 190 531 l 2
 190 582 211.80673724 616 258.291992188 616 c 0
 298.625833759 616 340 588.671232877 340 483 c 1
 414 514 l 1
 414 642.862068966 336.925369867 699 253.766601562 699 c 0
 164.786870417 699 100 634 100 531 c 2
 100 489 l 1
 20 489 l 1
 20 403 l 1
 100 403 l 1
 100 0 l 1
 190 0 l 1
 190 403 l 1
 397 403 l 1
 397 489 l 1
 190 489 l 1
EndSplineSet
Validated: 5
EndChar

StartChar: s
Encoding: 115 115 20
Width: 484
Flags: HW
LayerCount: 2
Fore
SplineSet
365 141.02734375 m 0
 365 199.664121597 295.615157882 202.269039135 220.000002383 206.730526938 c 0
 129.465691459 212.072283115 30 220.075500204 30 330.098632812 c 0
 30 437.518534839 119.998054545 502 229.94921875 502 c 0
 341.866871399 502 431 421.024291498 431 325 c 1
 346 295 l 1
 346 376.089005236 299.063865302 416 229.586914062 416 c 0
 173.198247143 416 119 389.302325581 119 339.01680229 c 0
 119 286.960449865 185.727280259 283.661741841 259 278.07421875 c 0
 351.471359472 271.271258484 454 261.07543656 454 155.357421875 c 0
 454 37.9032033218 369.766296165 -14 261.82421875 -14 c 0
 128.501988986 -14 30 72.017699115 30 202 c 1
 111 233 l 1
 111 130.228571429 166.38515331 68 256.467773438 68 c 0
 305.892112603 68 365 88.3049270664 365 141.02734375 c 0
EndSplineSet
Validated: 5
EndChar

StartChar: v
Encoding: 118 118 21
Width: 484
Flags: HW
LayerCount: 2
Fore
SplineSet
300 0 m 5
 184 0 l 5
 30 489 l 5
 126 489 l 5
 242 100.989257812 l 5
 358 489 l 5
 454 489 l 5
 300 0 l 5
EndSplineSet
Validated: 1
EndChar

StartChar: w
Encoding: 119 119 22
Width: 652
Flags: HW
LayerCount: 2
Fore
SplineSet
260 0 m 1
 144 0 l 1
 30 489 l 1
 126 489 l 1
 202 100.989257812 l 1
 258 489 l 1
 394 489 l 1
 450 100.989257812 l 1
 526 489 l 1
 622 489 l 1
 508 0 l 1
 392 0 l 1
 326 403.10546875 l 1
 260 0 l 1
EndSplineSet
Validated: 1
EndChar

StartChar: x
Encoding: 120 120 23
Width: 484
Flags: HW
LayerCount: 2
Fore
SplineSet
184 245 m 5
 30 489 l 1
 136 489 l 1
 242 306 l 1
 348 489 l 5
 454 489 l 5
 300 245 l 1
 454 1 l 1
 348 1 l 1
 242 184 l 5
 136 1 l 5
 30 1 l 5
 184 245 l 5
EndSplineSet
Validated: 1
EndChar

StartChar: y
Encoding: 121 121 24
Width: 484
Flags: HW
LayerCount: 2
Fore
SplineSet
210 0 m 1
 184 0 l 1
 30 489 l 1
 126 489 l 1
 242 100.989257812 l 1
 358 489 l 1
 454 489 l 1
 290 -52 l 2
 268.226868642 -123.824780882 234.642827053 -170 162.505958107 -170 c 0
 94.3957950368 -170 36 -128.8359375 36 -35 c 1
 110 -14 l 1
 110 -71.740234375 133.103027344 -87 156.93957749 -87 c 0
 187.393603516 -87 196.417520969 -62.091332712 203 -32 c 2
 210 0 l 1
EndSplineSet
Validated: 1
EndChar

StartChar: z
Encoding: 122 122 25
Width: 437
Flags: HW
LayerCount: 2
Fore
SplineSet
407 86 m 1
 407 0 l 1
 30 0 l 1
 30 86 l 1
 299 403 l 1
 30 403 l 1
 30 489 l 1
 407 489 l 1
 407 403 l 1
 136 86 l 1
 407 86 l 1
EndSplineSet
Validated: 1
EndChar

StartChar: A
Encoding: 65 65 27
Width: 500
Flags: HW
LayerCount: 2
Fore
SplineSet
360 241 m 0
 360 148.862068966 300.352941176 74 204.028048374 74 c 0
 148.363636364 74 121 99 121 132.247841157 c 0
 121 155 133.814218662 177.391740217 171 189 c 2
 360 248 l 1
 360 241 l 0
133 309 m 1
 133 402.568932146 193.108142557 430.2734375 250.284252441 430.2734375 c 0
 311 430.2734375 360 381 360 324 c 1
 148 261 l 2
 80.5030973361 240.941958171 30 199.085426508 30 125.069191902 c 0
 30 46.754491018 86.5393258427 -8 181.428026124 -8 c 0
 280.973684211 -8 349.223684211 52.2608695652 360 97 c 1
 390 24.476635514 428 0 480 0 c 1
 490 79 l 1
 463 79 450 117 450 158 c 1
 450 301 l 2
 450 440.355171871 355.284564376 513.525390625 259.255349095 513.525390625 c 0
 145.392247445 513.525390625 56 439.05762729 56 330 c 1
 133 309 l 1
EndSplineSet
EndChar

StartChar: B
Encoding: 66 66 28
Width: 500
Flags: HW
LayerCount: 2
Fore
SplineSet
140 118 m 1
 120 1 l 1
 50 1 l 1
 50 681 l 1
 140 681 l 1
 140 375 l 1
 159 439 215 500 304 500 c 0
 391 500 470 407 470 239 c 0
 470 71 395 -7 304 -7 c 0
 218 -7 159 54 140 118 c 1
140 241 m 0
 140 128 195 75 272 75 c 0
 340 75 379 116 379 234 c 0
 379 345 355 418 272 418 c 0
 175 418 140 341 140 241 c 0
EndSplineSet
EndChar

StartChar: C
Encoding: 67 67 29
Width: 534
Flags: HW
LayerCount: 2
Fore
SplineSet
470.87890625 305.116210938 m 1
 386.358398438 274.688476562 l 1
 386.358398438 369.465291496 330.761203637 416 249 416 c 0
 182.655172414 416 119 360 119 244 c 0
 119 118 185.674846626 68 262 68 c 0
 350.179265791 68 413 115.142857143 413 193 c 5
 494 162 l 5
 494 56.0884955752 386.623655914 -14 265 -14 c 0
 119.392156863 -14 30 82 30 244 c 0
 30 386 129.291139241 502 252 502 c 0
 373.435991308 502 470.87890625 411.885261205 470.87890625 305.116210938 c 1
EndSplineSet
EndChar

StartChar: D
Encoding: 68 68 30
Width: 540
Flags: HW
LayerCount: 2
Fore
SplineSet
400 118 m 1
 420 1 l 1
 490 1 l 1
 490 681 l 1
 400 681 l 1
 400 375 l 1
 379.841463415 439 320.426829268 500 226 500 c 0
 123.277108434 500 30 387 30 239 c 0
 30 91 118.554216867 -7 226 -7 c 0
 317.243902439 -7 379.841463415 54 400 118 c 1
400 241 m 0
 400 128 340.833333333 75 258 75 c 0
 170.934579439 75 121 136 121 234 c 0
 121 325 151.728971963 418 258 418 c 0
 362.348484848 418 400 341 400 241 c 0
EndSplineSet
EndChar

StartChar: E
Encoding: 69 69 31
Width: 534
Flags: HW
LayerCount: 2
Fore
SplineSet
487 208 m 1
 119 208 l 1
 119 119 195 68 282 68 c 0
 376.514925373 68 431 102.806896552 431 171 c 5
 507 132 l 5
 507 44.1020408163 423 -14 285 -14 c 0
 127 -14 30 82 30 244 c 0
 30 386 136 502 267 502 c 0
 394.412431612 502 494 406 494 252 c 0
 494 237 491 221 487 208 c 1
408 281 m 1
 395 372 334 416 264 416 c 0
 198 416 134 372 120 281 c 1
 408 281 l 1
EndSplineSet
EndChar

StartChar: F
Encoding: 70 70 32
Width: 427
Flags: HW
LayerCount: 2
Fore
SplineSet
190 489 m 1
 190 531 l 2
 190 582 211.80673724 616 258.291992188 616 c 0
 298.625833759 616 340 598.94520548 340 533 c 5
 414 564 l 5
 414 658.034482759 336.925369867 699 253.766601562 699 c 0
 164.786870417 699 100 634 100 531 c 2
 100 489 l 1
 20 489 l 1
 20 403 l 1
 100 403 l 1
 100 0 l 1
 190 0 l 1
 190 403 l 1
 397 403 l 1
 397 489 l 1
 190 489 l 1
EndSplineSet
EndChar

StartChar: G
Encoding: 71 71 33
Width: 500
Flags: HW
LayerCount: 2
Fore
SplineSet
360 268 m 0
 360 381 308 415 231 415 c 0
 164 415 121 340 121 256 c 0
 121 175 159 100 231 100 c 0
 328 100 360 168 360 268 c 0
245 -87 m 0
 318.259259259 -87 360 -40.6690647482 360 28 c 2
 360 123 l 1
 341 59 304 18 208 18 c 0
 122 18 30 90 30 258 c 0
 30 422 108 497 208 497 c 0
 294 497 341 436 360 372 c 1
 380 489 l 1
 450 489 l 1
 450 28 l 2
 450 -93.2972972973 356.074889868 -170 243 -170 c 0
 133.152073733 -170 46 -107.465753425 46 -5 c 5
 120 16 l 5
 120 -65.4689265536 177.75862069 -87 245 -87 c 0
EndSplineSet
EndChar

StartChar: H
Encoding: 72 72 34
Width: 520
Flags: HW
LayerCount: 2
Fore
SplineSet
50 681 m 1
 140 681 l 5
 140 375 l 1
 159 439 218 500 304 500 c 0
 395 500 470 431 470 306 c 2
 470 1 l 1
 379 1 l 1
 379 268 l 2
 379 372 340 418 272 418 c 0
 195 418 140 351 140 293 c 2
 140 1 l 1
 50 1 l 1
 50 681 l 1
EndSplineSet
EndChar

StartChar: I
Encoding: 73 73 35
Width: 190
Flags: HW
LayerCount: 2
Fore
SplineSet
140 588 m 1
 50 588 l 1
 50 681 l 1
 140 681 l 1
 140 588 l 1
140 1 m 5
 50 1 l 5
 50 489 l 5
 140 489 l 5
 140 1 l 5
EndSplineSet
EndChar

StartChar: J
Encoding: 74 74 36
Width: 190
Flags: HW
LayerCount: 2
Fore
SplineSet
140 588 m 1
 50 588 l 1
 50 681 l 1
 140 681 l 1
 140 588 l 1
50 489 m 1
 140 489 l 1
 140 -42 l 2
 140 -120.414414414 84.6431718063 -170 18 -170 c 0
 -50.0276497694 -170 -104 -134.934043632 -104 -55 c 1
 -30 -34 l 1
 -30 -75.9209039548 -11.5172413792 -87 10 -87 c 0
 35.4814814814 -87 50 -69 50 -42 c 2
 50 489 l 1
EndSplineSet
EndChar

StartChar: K
Encoding: 75 75 37
Width: 478
Flags: HW
LayerCount: 2
Fore
SplineSet
478 0 m 1
 352 0 l 1
 140 212.834645669 l 1
 140 1 l 1
 50 1 l 1
 50 681 l 1
 140 681 l 1
 140 297 l 1
 332 489 l 1
 459 489 l 1
 225 255 l 1
 478 0 l 1
EndSplineSet
EndChar

StartChar: L
Encoding: 76 76 38
Width: 190
Flags: HW
LayerCount: 2
Fore
SplineSet
140 1 m 5
 50 1 l 5
 50 681 l 5
 140 681 l 5
 140 1 l 5
EndSplineSet
EndChar

StartChar: M
Encoding: 77 77 39
Width: 699
Flags: HW
LayerCount: 2
Fore
SplineSet
273 500 m 0
 330 500 369 437 383 376 c 1
 395 439 455 499 521 499 c 0
 602 499 649 409 649 305 c 2
 649 0 l 1
 558 0 l 1
 558 267 l 2
 558 350 547 417 489 417 c 0
 425 417 402 364 402 306 c 2
 402 1 l 1
 311 1 l 1
 311 268 l 2
 311 351 300 418 242 418 c 0
 178 418 140 351 140 293 c 2
 140 1 l 1
 50 1 l 1
 50 489 l 1
 120 489 l 5
 140 375 l 1
 159 439 200 500 273 500 c 0
EndSplineSet
EndChar

StartChar: N
Encoding: 78 78 40
Width: 520
Flags: HW
LayerCount: 2
Fore
SplineSet
140 365 m 1
 160 430 219 500 305 500 c 0
 396 500 470 431 470 306 c 2
 470 1 l 1
 379 1 l 1
 379 268 l 2
 379 372 340 418 272 418 c 0
 195 418 140 341 140 283 c 2
 140 1 l 1
 50 1 l 1
 50 489 l 1
 120 489 l 5
 140 365 l 1
EndSplineSet
EndChar

StartChar: O
Encoding: 79 79 41
Width: 534
Flags: HW
LayerCount: 2
Fore
SplineSet
117 244 m 4
 117 120 190 68 264 68 c 4
 342 68 410 120 410 244 c 4
 410 360 342 416 264 416 c 4
 190 416 117 360 117 244 c 4
30 244 m 4
 30 386 136 502 267 502 c 4
 398 502 504 386 504 244 c 4
 504 102 398 -14 267 -14 c 4
 136 -14 30 102 30 244 c 4
EndSplineSet
EndChar

StartChar: P
Encoding: 80 80 42
Width: 500
Flags: HW
LayerCount: 2
Fore
SplineSet
140 372 m 1
 120 489 l 5
 50 489 l 1
 50 -191 l 1
 140 -191 l 1
 140 115 l 1
 159 51 215 -10 304 -10 c 0
 391 -10 470 83 470 251 c 0
 470 419 395 497 304 497 c 0
 218 497 159 436 140 372 c 1
140 249 m 0
 140 362 195 415 272 415 c 0
 340 415 379 374 379 256 c 0
 379 145 355 72 272 72 c 0
 175 72 140 149 140 249 c 0
EndSplineSet
EndChar

StartChar: Q
Encoding: 81 81 43
Width: 500
Flags: HW
LayerCount: 2
Fore
SplineSet
360 372 m 1
 380 489 l 5
 450 489 l 1
 450 -191 l 1
 360 -191 l 1
 360 115 l 1
 341 51 285 -10 196 -10 c 0
 109 -10 30 83 30 251 c 0
 30 419 105 497 196 497 c 0
 282 497 341 436 360 372 c 1
360 249 m 0
 360 362 305 415 228 415 c 0
 160 415 121 374 121 256 c 0
 121 145 145 72 228 72 c 0
 325 72 360 149 360 249 c 0
EndSplineSet
EndChar

StartChar: R
Encoding: 82 82 44
Width: 394
Flags: HW
LayerCount: 2
Fore
SplineSet
325 355 m 1
 322 381 291 420 246 420 c 0
 183 420 140 349 140 293 c 2
 140 1 l 1
 50 1 l 1
 50 489 l 1
 120 489 l 1
 140 375 l 1
 159.485140542 440.634157616 212.705085333 501.665276617 280.078893617 501.665276617 c 0
 334.294883966 501.665276617 381.752904576 446.927982321 389 394 c 1
 325 355 l 1
EndSplineSet
EndChar

StartChar: S
Encoding: 83 83 45
Width: 484
Flags: HW
LayerCount: 2
Fore
SplineSet
365 141.02734375 m 0
 365 199.664121597 295.615157882 202.269039135 220.000002383 206.730526938 c 0
 129.465691459 212.072283115 30 220.075500204 30 330.098632812 c 0
 30 437.518534839 119.998054545 502 229.94921875 502 c 0
 341.866871399 502 431 430.174089069 431 345 c 5
 346 315 l 5
 346 382.685863875 299.063865302 416 229.586914062 416 c 0
 173.198247143 416 119 389.302325581 119 339.01680229 c 0
 119 286.960449865 185.727280259 283.661741841 259 278.07421875 c 0
 351.471359472 271.271258484 454 261.07543656 454 155.357421875 c 0
 454 37.9032033218 369.766296165 -14 261.82421875 -14 c 0
 128.501988986 -14 30 52.1061946902 30 152 c 1
 111 183 l 1
 111 111.371428572 166.38515331 68 256.467773438 68 c 0
 305.892112603 68 365 88.3049270664 365 141.02734375 c 0
EndSplineSet
EndChar

StartChar: T
Encoding: 84 84 46
Width: 427
Flags: HWO
LayerCount: 2
Fore
SplineSet
258 0 m 2
 111.935251799 0 100 30 100 258 c 2
 100 403 l 1
 20 403 l 1
 20 489 l 1
 100 489 l 1
 100 619 l 1
 190 639 l 1
 190 489 l 1
 397 489 l 1
 397 403 l 1
 190 403 l 1
 190 258 l 2
 190 89.9314285714 190.708333333 86 258 86 c 2
 395 86 l 1
 395 0 l 1
 258 0 l 2
EndSplineSet
EndChar

StartChar: U
Encoding: 85 85 47
Width: 520
Flags: HW
LayerCount: 2
Fore
SplineSet
470 1 m 5
 400 1 l 5
 380 115 l 5
 361 51 302 -10 216 -10 c 0
 125 -10 50 59 50 184 c 6
 50 489 l 5
 141 489 l 5
 141 222 l 6
 141 118 180 72 248 72 c 4
 325 72 380 139 380 197 c 6
 380 489 l 5
 470 489 l 5
 470 1 l 5
EndSplineSet
EndChar

StartChar: V
Encoding: 86 86 48
Width: 484
Flags: HW
LayerCount: 2
Fore
SplineSet
300 0 m 5
 184 0 l 5
 30 489 l 5
 126 489 l 5
 242 100.989257812 l 5
 358 489 l 5
 454 489 l 5
 300 0 l 5
EndSplineSet
EndChar

StartChar: W
Encoding: 87 87 49
Width: 652
Flags: HW
LayerCount: 2
Fore
SplineSet
260 0 m 1
 144 0 l 1
 30 489 l 1
 126 489 l 1
 202 100.989257812 l 1
 258 489 l 1
 394 489 l 1
 450 100.989257812 l 1
 526 489 l 1
 622 489 l 1
 508 0 l 1
 392 0 l 1
 326 403.10546875 l 1
 260 0 l 1
EndSplineSet
EndChar

StartChar: X
Encoding: 88 88 50
Width: 484
Flags: HW
LayerCount: 2
Fore
SplineSet
184 245 m 5
 30 489 l 1
 136 489 l 1
 242 306 l 1
 348 489 l 5
 454 489 l 5
 300 245 l 1
 454 1 l 1
 348 1 l 1
 242 184 l 5
 136 1 l 5
 30 1 l 5
 184 245 l 5
EndSplineSet
EndChar

StartChar: Y
Encoding: 89 89 51
Width: 484
Flags: HW
LayerCount: 2
Fore
SplineSet
210 0 m 1
 184 0 l 1
 30 489 l 1
 126 489 l 1
 242 100.989257812 l 1
 358 489 l 1
 454 489 l 1
 290 -52 l 2
 268.226868642 -123.824780882 234.642827053 -170 162.505958107 -170 c 0
 94.3957950368 -170 36 -128.8359375 36 -35 c 1
 110 -14 l 1
 110 -71.740234375 133.103027344 -87 156.93957749 -87 c 0
 187.393603516 -87 196.417520969 -62.091332712 203 -32 c 2
 210 0 l 1
EndSplineSet
EndChar

StartChar: Z
Encoding: 90 90 52
Width: 437
Flags: HW
LayerCount: 2
Fore
SplineSet
407 86 m 1
 407 0 l 1
 30 0 l 1
 30 86 l 1
 299 403 l 1
 30 403 l 1
 30 489 l 1
 407 489 l 1
 407 403 l 1
 136 86 l 1
 407 86 l 1
EndSplineSet
EndChar
